<?xml version="1.0" encoding="utf-8"?>
<!-- Generator: Adobe Illustrator 24.2.3, SVG Export Plug-In . SVG Version: 6.00 Build 0)  -->
<svg version="1.1" id="Layer_1" xmlns="http://www.w3.org/2000/svg" xmlns:xlink="http://www.w3.org/1999/xlink" x="0px" y="0px"
	 viewBox="0 0 24 24" style="enable-background:new 0 0 24 24;" xml:space="preserve">
<style type="text/css">
	.st0{fill:none;}
	.st1{fill:#FFFFFF;}
</style>
<path d="M20,5H4C2.9,5,2,5.9,2,7l0,10c0,1.1,0.9,2,2,2h16c1.1,0,2-0.9,2-2V7C22,5.9,21.1,5,20,5z M11,8h2v2h-2V8z M11,11h2v2h-2V11z
	 M8,8h2v2H8V8z M8,11h2v2H8V11z M7,13H5v-2h2V13z M7,10H5V8h2V10z M16,17H8v-2h8V17z M16,13h-2v-2h2V13z M16,10h-2V8h2V10z M19,13
	h-2v-2h2V13z M19,10h-2V8h2V10z"/>
<path class="st0" d="M0,0h24v24H0V0z M0,0h24v24H0V0z"/>
<rect x="-1.2" y="10.4" transform="matrix(0.8998 0.4363 -0.4363 0.8998 6.0172 -4.0221)" class="st1" width="25.9" height="1.5"/>
<rect x="-1.8" y="11.5" transform="matrix(0.8998 0.4363 -0.4363 0.8998 6.5219 -3.7496)" width="26.4" height="1.6"/>
</svg>
