<?xml version="1.0" encoding="utf-8"?>
<!-- Generator: Adobe Illustrator 24.2.3, SVG Export Plug-In . SVG Version: 6.00 Build 0)  -->
<svg version="1.1" id="Layer_1" xmlns="http://www.w3.org/2000/svg" xmlns:xlink="http://www.w3.org/1999/xlink" x="0px" y="0px"
	 viewBox="0 0 24 24" style="enable-background:new 0 0 24 24;" xml:space="preserve">
<style type="text/css">
	.st0{fill:none;}
	.st1{fill:#FFFFFF;}
</style>
<path class="st0" d="M0,0h24v24H0V0z"/>
<path d="M19,12v7H5v-7H3v7c0,1.1,0.9,2,2,2h14c1.1,0,2-0.9,2-2v-7H19z M13,15.2l2.6-2.4L17,14l-5,4.7L7,14l1.4-1.3l2.6,2.4V6h2V15.2
	z"/>
<rect x="-0.2" y="12" transform="matrix(0.8998 0.4363 -0.4363 0.8998 6.8273 -4.0391)" class="st1" width="24.8" height="1.7"/>
<rect x="-0.8" y="13" transform="matrix(0.8998 0.4363 -0.4363 0.8998 7.2404 -3.6964)" width="24.8" height="1.7"/>
</svg>
